# xmcd
#
# Track frame offsets:
#	150
#	19450
#	32155
#	48482
#	63880
#	77810
#	92937
#	109569
#	126784
#	148824
#	168323
#	187008
#	203906
#	219624
#	236601
#	270423
#
# Disc length: 3618 seconds
#
# Revision: 1
# Processed by: cddbd v1.5.2PL0 Copyright (c) Steve Scherf et al.
# Submitted via: audiograbber 1.83.01
#
DISCID=e90e2010
DTITLE=Martina McBride - Sound Choice 8838
DYEAR=1900
DGENRE=Karoke
TTITLE0=Blessed (radio version)
TTITLE1=My Baby Loves Me
TTITLE2=There You Are
TTITLE3=Valentine
TTITLE4=I Love You
TTITLE5=Cheap Whiskey
TTITLE6=Independence Day
TTITLE7=When God Fearin Women Get The Blues (radio version)
TTITLE8=Where Would You Be
TTITLE9=Concrete Angel
TTITLE10=Wild Angels
TTITLE11=Life #9
TTITLE12=Wrong Again
TTITLE13=A Broken Wing
TTITLE14=Love's The Only House (radio version)
TTITLE15=Data Track
EXTD=
EXTT0=
EXTT1=
EXTT2=
EXTT3=
EXTT4=
EXTT5=
EXTT6=
EXTT7=
EXTT8=
EXTT9=
EXTT10=
EXTT11=
EXTT12=
EXTT13=
EXTT14=
EXTT15=
PLAYORDER=
